<svg width="44" height="28" viewBox="0 0 44 28" fill="none" xmlns="http://www.w3.org/2000/svg">
<path d="M11.4547 27.7701L11.2248 27.8501C10.9331 27.9584 10.6225 28.0066 10.3117 27.9918C10.0009 27.977 9.69629 27.8996 9.41615 27.7642C9.13601 27.6288 8.88612 27.4382 8.68148 27.2037C8.47683 26.9693 8.32165 26.696 8.22525 26.4001L0.166568 3.4001C-0.0671464 2.79767 -0.0544809 2.12746 0.201828 1.5343C0.458138 0.941137 0.937507 0.472658 1.53634 0.2301L1.8063 0.1501C2.09674 0.0435406 2.40569 -0.00331212 2.71465 0.0123468C3.02362 0.0280058 3.32625 0.105854 3.60443 0.241233C3.88261 0.376611 4.13062 0.566735 4.33361 0.800225C4.53661 1.03371 4.69041 1.30577 4.78581 1.6001L12.8445 24.6501C13.0619 25.2489 13.0385 25.9087 12.7793 26.4907C12.52 27.0726 12.0452 27.5312 11.4547 27.7701Z" fill="#E8E8E8"/>
<path d="M22.4629 27.7701L22.2229 27.8501C21.9313 27.9598 21.6205 28.0092 21.3092 27.9951C20.998 27.981 20.6929 27.9038 20.4124 27.7682C20.1319 27.6326 19.8818 27.4415 19.6775 27.2063C19.4731 26.9711 19.3186 26.6968 19.2234 26.4001L11.1647 3.40011C10.931 2.79768 10.9437 2.12747 11.2 1.53431C11.4563 0.941144 11.9357 0.472664 12.5345 0.230107L12.7645 0.150107C13.0562 0.0418397 13.3668 -0.00636094 13.6775 0.00839778C13.9883 0.0231565 14.2929 0.10057 14.5731 0.235992C14.8532 0.371414 15.1031 0.562052 15.3078 0.796463C15.5124 1.03087 15.6676 1.30422 15.764 1.60011L23.8227 24.6501C24.0392 25.2454 24.0189 25.9011 23.7658 26.4817C23.5128 27.0624 23.0463 27.5236 22.4629 27.7701Z" fill="#E8E8E8"/>
<path d="M36.5308 0.000111935H26.5324C25.9338 -0.00553978 25.3529 0.202995 24.8946 0.588081C24.4362 0.973167 24.1306 1.50944 24.0328 2.10011L22.4331 11.7401C22.3127 12.3947 22.4551 13.0704 22.8294 13.6207C23.2037 14.171 23.7798 14.5517 24.4328 14.6801C24.7603 14.74 25.0966 14.7334 25.4216 14.6605C25.7465 14.5876 26.0534 14.4499 26.3241 14.2558C26.5947 14.0617 26.8234 13.815 26.9966 13.5306C27.1698 13.2461 27.284 12.9297 27.3323 12.6001L28.6321 5.07011H36.5308C36.8625 5.07011 37.191 5.13562 37.4973 5.26289C37.8036 5.39015 38.0818 5.57667 38.3159 5.81173C38.55 6.0468 38.7354 6.32578 38.8615 6.63268C38.9875 6.93957 39.0517 7.26834 39.0504 7.60011V20.3601C39.0543 20.6936 38.9921 21.0245 38.8673 21.3337C38.7424 21.6429 38.5574 21.9243 38.3231 22.1614C38.0887 22.3986 37.8096 22.5869 37.502 22.7155C37.1943 22.844 36.8642 22.9101 36.5308 22.9101H31.6316C31.3012 22.9127 30.9745 22.9806 30.6704 23.1098C30.3662 23.2389 30.0906 23.4269 29.8593 23.6629C29.628 23.8989 29.4455 24.1783 29.3224 24.485C29.1994 24.7917 29.138 25.1197 29.142 25.4501C29.138 25.781 29.1993 26.1095 29.3223 26.4168C29.4452 26.724 29.6275 27.0041 29.8587 27.2409C30.0899 27.4777 30.3654 27.6666 30.6696 27.7969C30.9738 27.9271 31.3007 27.9962 31.6316 28.0001H36.5308C38.5338 27.9764 40.4455 27.1584 41.8459 25.7259C43.2463 24.2934 44.0209 22.3635 43.9996 20.3601V7.60011C44.0103 5.60365 43.2309 3.68402 41.8317 2.26016C40.4324 0.836308 38.5268 0.0238509 36.5308 0.000111935Z" fill="#E8E8E8"/>
</svg>
